# xmcd
#
# Track frame offsets: 
#        183
#        33760
#        52833
#        73658
#        84938
#        104193
#        134043
#        195993
#        230633
#        251838
#
# Disc length: 3951 seconds
#
# Revision: 8
# Processed by: cddbd v1.5.2PL0 Copyright (c) Steve Scherf et al.
# Submitted via: ExactAudioCopyFreeDBPlugin 1.0
#
DISCID=890f6d0a
DTITLE=Gil Evans - Verve Jazz Masters 23 - Gil Evans
DYEAR=1994
DGENRE=Jazz
TTITLE0=Time of the Barracudas [Miles Dewey Davis III-Ian Ernest Gilmo
TTITLE0=re Green aka ''Gil Evans''] [1964]
TTITLE1=Greensleeves [traditional] [1964]
TTITLE2=Last Night when We Were Young [Harold Arlen-E. Y. ''Yip'' Harb
TTITLE2=urg] [1964]
TTITLE3=She's a Carioca [Antonio Carlos Jobim-Vinicius de Moraes-Ray G
TTITLE3=ilbert] [1965]
TTITLE4=Moon and Sand [Alec Wilder-William Engvick-Mortimer Palitz] [1
TTITLE4=964]
TTITLE5=Las Vegas Tango [Ian Ernest Gilmore Green] [1963]
TTITLE6=Spoonful [Willie James Dixon] [1964]
TTITLE7=Concorde [John Aaron Lewis] [1964]
TTITLE8=I Will Wait for You [Michel Legrand-Norman Gimbel-Jacques Demy
TTITLE8=] [1965]
TTITLE9=The Barbara Song [Kurt Weill-Bertolt Brecht] [1964]
EXTD=YEAR: 1994
EXTT0=
EXTT1=
EXTT2=
EXTT3=
EXTT4=
EXTT5=
EXTT6=
EXTT7=
EXTT8=
EXTT9=
PLAYORDER=
